<mxfile host="app.diagrams.net" modified="2022-06-08T12:36:35.944Z" agent="5.0 (Windows NT 10.0; Win64; x64) AppleWebKit/537.36 (KHTML, like Gecko) Chrome/102.0.5005.63 Safari/537.36 Edg/102.0.1245.33" etag="i3YnSmCSM25u_LW-yuC7" version="19.0.1" type="github">
  <diagram id="kgpKYQtTHZ0yAKxKKP6v" name="Page-1">
    <mxGraphModel dx="637" dy="258" grid="1" gridSize="10" guides="1" tooltips="1" connect="1" arrows="1" fold="1" page="1" pageScale="1" pageWidth="850" pageHeight="1100" math="0" shadow="0">
      <root>
        <mxCell id="0" />
        <mxCell id="1" parent="0" />
        <mxCell id="3nuBFxr9cyL0pnOWT2aG-1" value=":GUI" style="shape=umlLifeline;perimeter=lifelinePerimeter;container=1;collapsible=0;recursiveResize=0;rounded=0;shadow=0;strokeWidth=1;" parent="1" vertex="1">
          <mxGeometry x="170" y="80" width="100" height="350" as="geometry" />
        </mxCell>
        <mxCell id="3nuBFxr9cyL0pnOWT2aG-2" value="" style="points=[];perimeter=orthogonalPerimeter;rounded=0;shadow=0;strokeWidth=1;" parent="3nuBFxr9cyL0pnOWT2aG-1" vertex="1">
          <mxGeometry x="45" y="85" width="10" height="265" as="geometry" />
        </mxCell>
        <mxCell id="184CYNBAIXT3_2iwbybo-1" value="1.1: Vérification des identifiants" style="endArrow=classic;html=1;rounded=0;verticalAlign=bottom;" parent="3nuBFxr9cyL0pnOWT2aG-1" target="P18yLKEyk5E9OTwKpfp2-25" edge="1">
          <mxGeometry width="50" height="50" relative="1" as="geometry">
            <mxPoint x="55" y="85" as="sourcePoint" />
            <mxPoint x="210" y="85" as="targetPoint" />
          </mxGeometry>
        </mxCell>
        <mxCell id="184CYNBAIXT3_2iwbybo-11" value="4.1:&amp;nbsp; Enregistrement des questions" style="endArrow=classic;html=1;rounded=0;verticalAlign=bottom;" parent="3nuBFxr9cyL0pnOWT2aG-1" edge="1" source="3nuBFxr9cyL0pnOWT2aG-2">
          <mxGeometry width="50" height="50" relative="1" as="geometry">
            <mxPoint x="55" y="290" as="sourcePoint" />
            <mxPoint x="645" y="291" as="targetPoint" />
          </mxGeometry>
        </mxCell>
        <mxCell id="3nuBFxr9cyL0pnOWT2aG-5" value=":Eleve" style="shape=umlLifeline;perimeter=lifelinePerimeter;container=1;collapsible=0;recursiveResize=0;rounded=0;shadow=0;strokeWidth=1;" parent="1" vertex="1">
          <mxGeometry x="300" y="80" width="100" height="320" as="geometry" />
        </mxCell>
        <mxCell id="3nuBFxr9cyL0pnOWT2aG-6" value="" style="points=[];perimeter=orthogonalPerimeter;rounded=0;shadow=0;strokeWidth=1;" parent="3nuBFxr9cyL0pnOWT2aG-5" vertex="1">
          <mxGeometry x="45" y="105" width="10" height="215" as="geometry" />
        </mxCell>
        <mxCell id="184CYNBAIXT3_2iwbybo-7" value="2.1: Sélection du questionnaire" style="endArrow=classic;html=1;rounded=0;verticalAlign=bottom;" parent="3nuBFxr9cyL0pnOWT2aG-5" edge="1">
          <mxGeometry width="50" height="50" relative="1" as="geometry">
            <mxPoint x="-75" y="190" as="sourcePoint" />
            <mxPoint x="334" y="189" as="targetPoint" />
          </mxGeometry>
        </mxCell>
        <mxCell id="P18yLKEyk5E9OTwKpfp2-1" value=":Questionnaire" style="shape=umlLifeline;perimeter=lifelinePerimeter;container=1;collapsible=0;recursiveResize=0;rounded=0;shadow=0;strokeWidth=1;" parent="1" vertex="1">
          <mxGeometry x="590" y="80" width="100" height="360" as="geometry" />
        </mxCell>
        <mxCell id="184CYNBAIXT3_2iwbybo-5" value="" style="points=[];perimeter=orthogonalPerimeter;rounded=0;shadow=0;strokeWidth=1;" parent="P18yLKEyk5E9OTwKpfp2-1" vertex="1">
          <mxGeometry x="45" y="150" width="10" height="170" as="geometry" />
        </mxCell>
        <mxCell id="P18yLKEyk5E9OTwKpfp2-5" value=":EleveReponse" style="shape=umlLifeline;perimeter=lifelinePerimeter;container=1;collapsible=0;recursiveResize=0;rounded=0;shadow=0;strokeWidth=1;" parent="1" vertex="1">
          <mxGeometry x="770" y="80" width="100" height="400" as="geometry" />
        </mxCell>
        <mxCell id="184CYNBAIXT3_2iwbybo-15" value="" style="points=[];perimeter=orthogonalPerimeter;rounded=0;shadow=0;strokeWidth=1;" parent="P18yLKEyk5E9OTwKpfp2-5" vertex="1">
          <mxGeometry x="45" y="290" width="10" height="30" as="geometry" />
        </mxCell>
        <mxCell id="P18yLKEyk5E9OTwKpfp2-11" value="élève" style="shape=umlActor;verticalLabelPosition=bottom;verticalAlign=top;html=1;outlineConnect=0;" parent="1" vertex="1">
          <mxGeometry x="36" y="57" width="30" height="60" as="geometry" />
        </mxCell>
        <mxCell id="P18yLKEyk5E9OTwKpfp2-12" value="" style="endArrow=none;dashed=1;html=1;rounded=0;" parent="1" edge="1">
          <mxGeometry width="50" height="50" relative="1" as="geometry">
            <mxPoint x="50" y="140" as="sourcePoint" />
            <mxPoint x="50" y="440" as="targetPoint" />
          </mxGeometry>
        </mxCell>
        <mxCell id="P18yLKEyk5E9OTwKpfp2-14" value=":Questions" style="shape=umlLifeline;perimeter=lifelinePerimeter;container=1;collapsible=0;recursiveResize=0;rounded=0;shadow=0;strokeWidth=1;" parent="1" vertex="1">
          <mxGeometry x="920" y="80" width="100" height="310" as="geometry" />
        </mxCell>
        <mxCell id="184CYNBAIXT3_2iwbybo-10" value="2.3: Affichage des questions" style="endArrow=none;html=1;rounded=0;startArrow=classic;startFill=1;endFill=0;dashed=1;verticalAlign=bottom;" parent="P18yLKEyk5E9OTwKpfp2-14" edge="1">
          <mxGeometry x="-0.0927" width="50" height="50" relative="1" as="geometry">
            <mxPoint x="-695" y="220" as="sourcePoint" />
            <mxPoint x="50" y="220" as="targetPoint" />
            <mxPoint as="offset" />
          </mxGeometry>
        </mxCell>
        <mxCell id="184CYNBAIXT3_2iwbybo-12" value="4.2: Enregistrement des réponses" style="endArrow=classic;html=1;rounded=0;verticalAlign=bottom;" parent="P18yLKEyk5E9OTwKpfp2-14" target="P18yLKEyk5E9OTwKpfp2-25" edge="1">
          <mxGeometry width="50" height="50" relative="1" as="geometry">
            <mxPoint x="-95" y="300" as="sourcePoint" />
            <mxPoint x="55" y="300" as="targetPoint" />
          </mxGeometry>
        </mxCell>
        <mxCell id="184CYNBAIXT3_2iwbybo-14" value="" style="points=[];perimeter=orthogonalPerimeter;rounded=0;shadow=0;strokeWidth=1;" parent="P18yLKEyk5E9OTwKpfp2-14" vertex="1">
          <mxGeometry x="45" y="200" width="10" height="20" as="geometry" />
        </mxCell>
        <mxCell id="P18yLKEyk5E9OTwKpfp2-16" value="" style="endArrow=classic;html=1;rounded=0;verticalAlign=bottom;entryX=-0.059;entryY=0.003;entryDx=0;entryDy=0;entryPerimeter=0;" parent="1" target="3nuBFxr9cyL0pnOWT2aG-2" edge="1">
          <mxGeometry width="50" height="50" relative="1" as="geometry">
            <mxPoint x="50" y="166" as="sourcePoint" />
            <mxPoint x="160" y="170" as="targetPoint" />
          </mxGeometry>
        </mxCell>
        <mxCell id="P18yLKEyk5E9OTwKpfp2-20" value="1: Entre identifiants" style="edgeLabel;html=1;align=center;verticalAlign=middle;resizable=0;points=[];" parent="P18yLKEyk5E9OTwKpfp2-16" vertex="1" connectable="0">
          <mxGeometry x="-0.2972" y="2" relative="1" as="geometry">
            <mxPoint x="10" y="-8" as="offset" />
          </mxGeometry>
        </mxCell>
        <mxCell id="P18yLKEyk5E9OTwKpfp2-25" value="DB" style="shape=umlLifeline;perimeter=lifelinePerimeter;container=1;collapsible=0;recursiveResize=0;rounded=0;shadow=0;strokeWidth=1;" parent="1" vertex="1">
          <mxGeometry x="1080" y="80" width="100" height="400" as="geometry" />
        </mxCell>
        <mxCell id="P18yLKEyk5E9OTwKpfp2-26" value="" style="points=[];perimeter=orthogonalPerimeter;rounded=0;shadow=0;strokeWidth=1;fillColor=default;" parent="P18yLKEyk5E9OTwKpfp2-25" vertex="1">
          <mxGeometry x="45" y="85" width="15" height="245" as="geometry" />
        </mxCell>
        <mxCell id="184CYNBAIXT3_2iwbybo-13" value="4.3 : Déconnexion" style="endArrow=none;html=1;rounded=0;startArrow=classic;startFill=1;endFill=0;dashed=1;verticalAlign=bottom;" parent="P18yLKEyk5E9OTwKpfp2-25" edge="1">
          <mxGeometry x="0.0757" width="50" height="50" relative="1" as="geometry">
            <mxPoint x="-852.9425680226293" y="320" as="sourcePoint" />
            <mxPoint x="45" y="320" as="targetPoint" />
            <mxPoint as="offset" />
          </mxGeometry>
        </mxCell>
        <mxCell id="P18yLKEyk5E9OTwKpfp2-34" value="1.6 :Affichage des questionnaires" style="endArrow=none;html=1;rounded=0;startArrow=classic;startFill=1;endFill=0;dashed=1;verticalAlign=bottom;" parent="1" edge="1">
          <mxGeometry x="-0.0244" y="4" width="50" height="50" relative="1" as="geometry">
            <mxPoint x="50" y="244" as="sourcePoint" />
            <mxPoint x="214" y="244" as="targetPoint" />
            <mxPoint as="offset" />
          </mxGeometry>
        </mxCell>
        <mxCell id="P18yLKEyk5E9OTwKpfp2-35" value="2: Sélection du questionnaire" style="endArrow=classic;html=1;rounded=0;verticalAlign=bottom;" parent="1" edge="1">
          <mxGeometry width="50" height="50" relative="1" as="geometry">
            <mxPoint x="48" y="266" as="sourcePoint" />
            <mxPoint x="214" y="266" as="targetPoint" />
          </mxGeometry>
        </mxCell>
        <mxCell id="P18yLKEyk5E9OTwKpfp2-38" value="2.4: Affichage des questions" style="endArrow=none;html=1;rounded=0;startArrow=classic;startFill=1;endFill=0;dashed=1;verticalAlign=bottom;" parent="1" edge="1">
          <mxGeometry width="50" height="50" relative="1" as="geometry">
            <mxPoint x="50" y="310" as="sourcePoint" />
            <mxPoint x="210" y="310" as="targetPoint" />
          </mxGeometry>
        </mxCell>
        <mxCell id="P18yLKEyk5E9OTwKpfp2-39" value="3: Répondre aux questions" style="endArrow=classic;html=1;rounded=0;verticalAlign=bottom;" parent="1" edge="1">
          <mxGeometry width="50" height="50" relative="1" as="geometry">
            <mxPoint x="50" y="330" as="sourcePoint" />
            <mxPoint x="215" y="330" as="targetPoint" />
          </mxGeometry>
        </mxCell>
        <mxCell id="P18yLKEyk5E9OTwKpfp2-41" value="4: Sauvegarder" style="endArrow=classic;html=1;rounded=0;verticalAlign=bottom;" parent="1" edge="1">
          <mxGeometry width="50" height="50" relative="1" as="geometry">
            <mxPoint x="50" y="360" as="sourcePoint" />
            <mxPoint x="214" y="360" as="targetPoint" />
          </mxGeometry>
        </mxCell>
        <mxCell id="P18yLKEyk5E9OTwKpfp2-42" value="4: Déconnexion" style="endArrow=none;html=1;rounded=0;startArrow=classic;startFill=1;endFill=0;dashed=1;exitX=1.161;exitY=-0.001;exitDx=0;exitDy=0;exitPerimeter=0;verticalAlign=bottom;" parent="1" edge="1">
          <mxGeometry width="50" height="50" relative="1" as="geometry">
            <mxPoint x="50" y="410" as="sourcePoint" />
            <mxPoint x="214" y="410" as="targetPoint" />
          </mxGeometry>
        </mxCell>
        <mxCell id="184CYNBAIXT3_2iwbybo-2" value="1.2: Identifiants valide fonction Eleve" style="endArrow=none;html=1;rounded=0;startArrow=classic;startFill=1;endFill=0;dashed=1;exitX=0.531;exitY=0.348;exitDx=0;exitDy=0;exitPerimeter=0;verticalAlign=bottom;" parent="1" source="3nuBFxr9cyL0pnOWT2aG-5" edge="1">
          <mxGeometry width="50" height="50" relative="1" as="geometry">
            <mxPoint x="880" y="190" as="sourcePoint" />
            <mxPoint x="1125" y="191" as="targetPoint" />
          </mxGeometry>
        </mxCell>
        <mxCell id="184CYNBAIXT3_2iwbybo-3" value="1.3: Récupération des questionnaires" style="endArrow=classic;html=1;rounded=0;verticalAlign=bottom;exitX=1.146;exitY=0.128;exitDx=0;exitDy=0;exitPerimeter=0;" parent="1" source="3nuBFxr9cyL0pnOWT2aG-6" target="P18yLKEyk5E9OTwKpfp2-26" edge="1">
          <mxGeometry width="50" height="50" relative="1" as="geometry">
            <mxPoint x="348" y="220" as="sourcePoint" />
            <mxPoint x="503" y="220" as="targetPoint" />
          </mxGeometry>
        </mxCell>
        <mxCell id="184CYNBAIXT3_2iwbybo-6" value="1.5: Récupération des questionnaires" style="endArrow=none;html=1;rounded=0;startArrow=classic;startFill=1;endFill=0;dashed=1;verticalAlign=bottom;" parent="1" edge="1">
          <mxGeometry x="0.2204" width="50" height="50" relative="1" as="geometry">
            <mxPoint x="226" y="240" as="sourcePoint" />
            <mxPoint x="630" y="240" as="targetPoint" />
            <mxPoint as="offset" />
          </mxGeometry>
        </mxCell>
        <mxCell id="184CYNBAIXT3_2iwbybo-8" value="2.2: Récupération des questions" style="endArrow=classic;html=1;rounded=0;verticalAlign=bottom;entryX=0.497;entryY=0.641;entryDx=0;entryDy=0;entryPerimeter=0;" parent="1" target="P18yLKEyk5E9OTwKpfp2-14" edge="1">
          <mxGeometry width="50" height="50" relative="1" as="geometry">
            <mxPoint x="650" y="279" as="sourcePoint" />
            <mxPoint x="795" y="280" as="targetPoint" />
          </mxGeometry>
        </mxCell>
        <mxCell id="184CYNBAIXT3_2iwbybo-4" value="1.4: Récupération des questionnaires" style="endArrow=none;html=1;rounded=0;startArrow=classic;startFill=1;endFill=0;dashed=1;verticalAlign=bottom;shadow=0;sketch=0;" parent="1" edge="1">
          <mxGeometry width="50" height="50" relative="1" as="geometry">
            <mxPoint x="645" y="234" as="sourcePoint" />
            <mxPoint x="1125" y="234" as="targetPoint" />
          </mxGeometry>
        </mxCell>
        <mxCell id="184CYNBAIXT3_2iwbybo-9" value="" style="points=[];perimeter=orthogonalPerimeter;rounded=0;shadow=0;strokeWidth=1;" parent="1" vertex="1">
          <mxGeometry x="1135" y="210" width="10" height="180" as="geometry" />
        </mxCell>
        <mxCell id="yX0S056tLVxub5YdKhZ8-1" value="" style="shape=umlDestroy;whiteSpace=wrap;html=1;strokeWidth=3;fillColor=default;" vertex="1" parent="1">
          <mxGeometry x="30" y="440" width="30" height="30" as="geometry" />
        </mxCell>
      </root>
    </mxGraphModel>
  </diagram>
</mxfile>
